<svg xmlns="http://www.w3.org/2000/svg" viewBox="0 0 512 512">
  <defs>
    <linearGradient id="bg" x1="80" y1="40" x2="440" y2="480" gradientUnits="userSpaceOnUse">
      <stop offset="0" stop-color="#16273f"/>
      <stop offset="1" stop-color="#0a1120"/>
    </linearGradient>
    <linearGradient id="amber" x1="180" y1="150" x2="330" y2="380" gradientUnits="userSpaceOnUse">
      <stop offset="0" stop-color="#fbbf24"/>
      <stop offset="1" stop-color="#d97706"/>
    </linearGradient>
    <linearGradient id="cyan" x1="120" y1="120" x2="392" y2="392" gradientUnits="userSpaceOnUse">
      <stop offset="0" stop-color="#22d3ee"/>
      <stop offset="1" stop-color="#00a7b8"/>
    </linearGradient>
  </defs>

  <rect width="512" height="512" rx="116" fill="url(#bg)"/>
  <rect x="10" y="10" width="492" height="492" rx="108" fill="none" stroke="#ffffff" stroke-opacity="0.05" stroke-width="2"/>

  <!-- Viewfinder / marco de captura -->
  <g fill="none" stroke="url(#cyan)" stroke-width="24" stroke-linecap="round">
    <path d="M126 176 V150 Q126 126 150 126 H176"/>
    <path d="M386 176 V150 Q386 126 362 126 H336"/>
    <path d="M126 336 V362 Q126 386 150 386 H176"/>
    <path d="M386 336 V362 Q386 386 362 386 H336"/>
  </g>

  <!-- Punto de captura activa -->
  <circle cx="256" cy="126" r="9" fill="url(#cyan)"/>

  <!-- Monograma L -->
  <g fill="url(#amber)">
    <rect x="212" y="168" width="58" height="178" rx="16"/>
    <rect x="212" y="288" width="118" height="58" rx="16"/>
  </g>
</svg>
